# File created by Blade
# Date/Time:  Tue Jan 27 17:16:27 2015
# Frame Rate: 120.000 fps
#------------------------------------------------------
:FULLY-SPECIFIED
:DEGREES
3163
root -1.794377 37.758389 2.155464 80.771847 54.929784 63.645609
Spine 0.969158 -0.719422 -16.458919
Head -9.351546 32.420927 -27.238647
LeftShoulder 7.892387 -21.566590 8.312927
LeftArm 27.221577 -11.992670 -62.636229
LeftForeArm 8.541844 0.000000 72.049355
LeftHand -15.777940 -0.000000 57.963148
LeftHandThumb1 -26.253704 0.000000 33.147579
RightShoulder -2.099857 -17.812707 -12.069937
RightArm -2.656210 -5.148284 47.840044
RightForeArm -156.635612 0.000000 25.067697
RightHand -0.281467 0.000000 2.691050
RightHandThumb1 -24.326973 -0.000000 -32.862282
LeftUpLeg -24.889351 24.584928 26.185456
LeftLeg 105.301051 -0.000000 -0.000000
LeftFoot -5.280772 6.219962 -31.852853
LeftToeBase 14.660085 -0.000000 -0.000000
RightUpLeg -35.214544 -28.109593 -13.096316
RightLeg 28.362590 -0.000000 -0.000000
RightFoot -26.126376 -28.927259 9.527219
RightToeBase 3.387164 -0.000000 -0.000000
3164
root -1.810822 37.763852 2.167768 80.938337 54.957842 63.704271
Spine 0.904170 -0.775261 -16.407685
Head -9.399421 33.394900 -27.651132
LeftShoulder 7.796628 -21.582166 8.284472
LeftArm 27.378747 -11.908696 -62.732931
LeftForeArm 8.524851 -0.000000 72.083510
LeftHand -15.688722 0.000000 58.091956
LeftHandThumb1 -26.253704 0.000000 33.147579
RightShoulder -2.082507 -17.772418 -12.175101
RightArm -2.677048 -5.102895 47.723017
RightForeArm -156.673668 -0.000000 25.065290
RightHand -0.182453 -0.000000 2.551702
RightHandThumb1 -24.326973 -0.000000 -32.862282
LeftUpLeg -24.899770 24.694296 26.041427
LeftLeg 105.008826 -0.000000 -0.000000
LeftFoot -5.194534 5.977201 -32.195222
LeftToeBase 14.688383 -0.000000 -0.000000
RightUpLeg -35.330334 -28.263203 -12.945238
RightLeg 28.271375 -0.000000 -0.000000
RightFoot -26.076813 -28.807355 9.510717
RightToeBase 3.366955 -0.000000 -0.000000
3165
root -1.823005 37.766725 2.183631 80.982765 54.975690 63.706054
Spine 0.924591 -0.759750 -16.384270
Head -9.454147 34.297434 -28.006668
LeftShoulder 7.695492 -21.604774 8.299428
LeftArm 27.585097 -11.796860 -62.846990
LeftForeArm 8.636510 -0.000000 72.072536
LeftHand -15.739454 -0.000000 57.446325
LeftHandThumb1 -26.253704 0.000000 33.147579
RightShoulder -2.092222 -17.705380 -12.230670
RightArm -2.728276 -5.142746 47.589859
RightForeArm -156.777825 0.000000 25.089827
RightHand -0.039818 -0.000000 2.614311
RightHandThumb1 -24.326973 -0.000000 -32.862282
LeftUpLeg -24.803473 24.851891 25.947484
LeftLeg 104.719026 -0.000000 -0.000000
LeftFoot -5.114305 5.700227 -32.501312
LeftToeBase 14.817754 -0.000000 -0.000000
RightUpLeg -35.351410 -28.291253 -12.872503
RightLeg 28.192962 -0.000000 -0.000000
RightFoot -26.059213 -28.715341 9.589420
RightToeBase 3.252104 -0.000000 -0.000000
3166
root -1.837254 37.770216 2.194966 81.211166 55.004718 63.858047
Spine 0.886250 -0.841743 -16.343002
Head -9.490990 35.228195 -28.363355
LeftShoulder 7.595681 -21.611472 8.307334
LeftArm 27.809609 -11.650563 -62.958001
LeftForeArm 8.723522 -0.000000 72.043123
LeftHand -15.690376 -0.000000 57.361247
LeftHandThumb1 -26.253704 0.000000 33.147579
RightShoulder -2.116561 -17.690876 -12.298761
RightArm -2.739498 -5.103435 47.462170
RightForeArm -156.976265 -0.000000 25.037645
RightHand -0.094859 0.000000 2.484752
RightHandThumb1 -24.326973 -0.000000 -32.862282
LeftUpLeg -24.855398 25.008197 25.783869
LeftLeg 104.473732 -0.000000 -0.000000
LeftFoot -5.008351 5.459749 -32.721508
LeftToeBase 14.800968 -0.000000 -0.000000
RightUpLeg -35.421039 -28.395224 -12.798316
RightLeg 28.141983 -0.000000 -0.000000
RightFoot -26.049612 -28.695168 9.587369
RightToeBase 3.286158 -0.000000 -0.000000
3167
root -1.849478 37.773050 2.208605 81.404875 55.029237 64.011661
Spine 0.887962 -0.891967 -16.318394
Head -9.504988 36.069988 -28.651228
LeftShoulder 7.545365 -21.662218 8.311569
LeftArm 27.994361 -11.508757 -63.071653
LeftForeArm 8.721172 -0.000000 72.026232
LeftHand -15.661989 -0.000000 57.786597
LeftHandThumb1 -26.253704 0.000000 33.147579
RightShoulder -2.143364 -17.674812 -12.366068
RightArm -2.768584 -5.070285 47.385118
RightForeArm -156.973075 -0.000000 25.004566
RightHand 0.014928 0.000000 2.550580
RightHandThumb1 -24.326973 -0.000000 -32.862282
LeftUpLeg -24.868611 25.193029 25.630166
LeftLeg 104.244364 -0.000000 -0.000000
LeftFoot -4.948841 5.190298 -33.035239
LeftToeBase 14.681716 -0.000000 -0.000000
RightUpLeg -35.444801 -28.472925 -12.758671
RightLeg 28.087138 -0.000000 -0.000000
RightFoot -26.075756 -28.561498 9.770048
RightToeBase 3.141749 -0.000000 -0.000000
3168
root -1.860319 37.775596 2.221481 81.623240 55.057287 64.218816
Spine 0.904940 -0.936715 -16.285117
Head -9.486595 36.785560 -28.914187
LeftShoulder 7.564604 -21.718413 8.287220
LeftArm 28.156240 -11.386177 -63.161783
LeftForeArm 8.825918 0.000000 71.988342
LeftHand -15.642283 -0.000000 57.270619
LeftHandThumb1 -26.253704 0.000000 33.147579
RightShoulder -2.178715 -17.668750 -12.419140
RightArm -2.822297 -4.976009 47.306319
RightForeArm -157.152778 -0.000000 24.910456
RightHand 0.028923 -0.000000 2.460588
RightHandThumb1 -24.326973 -0.000000 -32.862282
LeftUpLeg -24.904030 25.394459 25.471333
LeftLeg 104.045014 -0.000000 -0.000000
LeftFoot -4.858160 4.953185 -33.309665
LeftToeBase 14.761372 -0.000000 -0.000000
RightUpLeg -35.440584 -28.574766 -12.731296
RightLeg 28.053919 -0.000000 -0.000000
RightFoot -26.083504 -28.631712 9.738739
RightToeBase 3.244542 -0.000000 -0.000000
